<svg version="1.0" xmlns="http://www.w3.org/2000/svg" width="240" height="240" viewBox="0 0 180 180"><path d="M27 91.5V107h6V94h4.5c4.1 0 4.5-.2 4.5-2.5s-.4-2.5-4.5-2.5C33 89 33 89 33 85.5V82h5.5c5.4 0 5.5 0 5.5-3v-3H27v15.5zm23.7-14.4c-3 1.7-4.7 7.3-4.7 14.9 0 10.8 3.6 16 11.2 16 8.1 0 12.7-8.9 10.8-20.7-1-6.1-2.3-8.9-5-10.3-2.4-1.3-10-1.2-12.3.1zm8.7 5.2c2.4 1.7 3.3 13.1 1.4 16.7-1.5 2.8-4.2 3.7-6.3 2-3.1-2.6-3-15.4.2-18.5 1.8-1.8 2.4-1.9 4.7-.2zm11.8 9.4l.3 15.8h3c3 0 3 0 3.3-6.3.3-5.3.6-6.3 2-6 .9.2 3.1 2.9 4.7 6.1 3 5.7 5.7 7.6 9 6.3 1.3-.5 1.1-1.5-1.5-6.5-1.6-3.3-3.4-6.2-4-6.6-.5-.3.2-1.6 1.7-2.9 3.9-3.4 3.9-9.8 0-13.2-2.5-2.1-3.8-2.4-10.8-2.4h-8l.3 15.7zm13.2-9.1c2.1.8 2.1 5 0 5.8-.9.3-2.7.6-4 .6-2.1 0-2.4-.5-2.4-3.5s.3-3.5 2.4-3.5c1.3 0 3.1.3 4 .6zM96 91.5V107h8.5c8.4 0 8.5 0 8.5-2.5 0-2.3-.3-2.5-5-2.5h-5v-8h4.5c4.3 0 4.5-.1 4.5-3s-.2-3-4.5-3-4.5-.1-4.5-3 .1-3 5-3 5-.1 5-3v-3H96v15.5zm22-13c-2.7 2.9-3.2 8.3-1 11 .8.9 3.5 2.7 6.1 4 2.5 1.3 4.9 3.1 5.2 4 1.9 4.7-4.5 6.5-6.5 1.7-.7-1.5-1.3-2.8-1.4-3-.1-.2-1.3 0-2.8.4-3.6.9-3.5 4.7.3 8.5 2.3 2.3 3.8 2.9 7.1 2.9 7.9 0 12.8-8.6 8.4-14.8-.8-1.2-3.8-3.4-6.5-4.8-4-2-5-2.9-4.7-4.7.4-3.2 3.5-3.4 5-.2 1.5 3.4 6.1 3.2 6.6-.3 1-6.6-10.8-10-15.8-4.7zm18 .5c0 2.8.3 3 3.5 3h3.5v25h6V82h3.5c3.2 0 3.5-.2 3.5-3v-3h-20v3z"/></svg>