<svg width="18" height="18" viewBox="0 0 18 18" fill="none" xmlns="http://www.w3.org/2000/svg">
<g clip-path="url(#clip0_206_5804)">
<path d="M13.166 17.8202L14.0677 16.9186C14.1881 16.7982 14.2483 16.6598 14.2483 16.5034C14.2483 16.3471 14.1881 16.2092 14.0677 16.0889L6.97967 9.00025L14.0677 1.91219C14.1881 1.79181 14.2483 1.65344 14.2483 1.49706C14.2483 1.34069 14.1881 1.20231 14.0677 1.08194L13.166 0.18025C13.0457 0.0598746 12.9073 -0.000312864 12.7509 -0.000312871C12.5945 -0.000312877 12.4562 0.0598746 12.3364 0.18025L3.93148 8.58512C3.8111 8.7055 3.75092 8.84387 3.75092 9.00025C3.75092 9.15662 3.8111 9.29444 3.93148 9.41481L12.3364 17.8202C12.4567 17.9406 12.5951 18.0002 12.7509 18.0002C12.9067 18.0002 13.0457 17.9406 13.166 17.8202Z" fill="#555555"/>
</g>
<defs>
<clipPath id="clip0_206_5804">
<rect width="18" height="18" fill="white"/>
</clipPath>
</defs>
</svg>
