<?xml version="1.0" encoding="UTF-8"?>
<svg width="24px" height="24px" viewBox="0 0 24 24" version="1.1" xmlns="http://www.w3.org/2000/svg" xmlns:xlink="http://www.w3.org/1999/xlink">
    <title>0FCE4055-BC1D-44B4-BF25-394D5B796558</title>
    <g id="UI-Kit-Lite-✔️" stroke="none" stroke-width="1" fill="none" fill-rule="evenodd">
        <g id="GENERAL-UI-COMPONENT" transform="translate(-879.000000, -5313.000000)">
            <rect fill="#FFFFFF" x="0" y="0" width="1400" height="22842"></rect>
            <rect id="Rectangle" fill="#555555" fill-rule="nonzero" x="0" y="4042" width="1400" height="5559"></rect>
            <g id="Menu/Expanded" transform="translate(60.000000, 4739.000000)">
                <g id="Group-2" transform="translate(788.000000, 49.000000)" fill="#FFFFFF" stroke="#E5E5DF">
                    <path d="M333,0.707106781 L340.792893,8.5 L373.5,8.5 L373.5,582.5 L0.5,582.5 L0.5,8.5 L325.207107,8.5 L333,0.707106781 Z" id="Rectangle"></path>
                </g>
                <g id="Icons/24px/Developers-corner-Copy-6" transform="translate(819.000000, 574.000000)" fill="#97BD3D">
                    <g id="ic_email_24px" transform="translate(2.000000, 4.000000)">
                        <path d="M10,11.0769231 L20,4.92307692 L20,16 L0,16 L0,4.92307692 L10,11.0769231 Z M0,0 L20,0 L20,2.46153846 L10,8.61538462 L0,2.46153846 L0,0 Z" id="Shape"></path>
                    </g>
                </g>
            </g>
        </g>
    </g>
</svg>