<!-- Generated by IcoMoon.io -->
<svg version="1.1" xmlns="http://www.w3.org/2000/svg" width="32" height="32" viewBox="0 0 32 32">
<title>menu</title>
<path d="M28 14.667h-24c-0.733 0-1.333 0.6-1.333 1.333s0.6 1.333 1.333 1.333h24c0.733 0 1.333-0.6 1.333-1.333s-0.6-1.333-1.333-1.333z"></path>
<path d="M4 9.333h24c0.733 0 1.333-0.6 1.333-1.333s-0.6-1.333-1.333-1.333h-24c-0.733 0-1.333 0.6-1.333 1.333s0.6 1.333 1.333 1.333z"></path>
<path d="M28 22.667h-24c-0.733 0-1.333 0.6-1.333 1.333s0.6 1.333 1.333 1.333h24c0.733 0 1.333-0.6 1.333-1.333s-0.6-1.333-1.333-1.333z"></path>
</svg>
