<svg width="37" height="40" viewBox="0 0 37 40" fill="none" xmlns="http://www.w3.org/2000/svg">
<path d="M24.1988 22.4474C23.7724 21.8158 23.504 21.1052 23.504 20.3474V18.8474C23.504 16.3684 21.9724 14.5053 19.604 14.0158V13.4158C19.604 12.9105 19.1935 12.5 18.6882 12.5H18.1671C17.6618 12.5 17.2514 12.9105 17.2514 13.4158V14.0158C14.8987 14.5211 13.3514 16.3842 13.3514 18.8474V20.3474C13.3514 21.1052 13.0829 21.8316 12.6566 22.4474C12.4829 22.7 12.3882 23.0001 12.3882 23.3158V23.4421C12.3882 24.2947 13.0829 24.9895 13.9355 24.9895H22.9197C23.7723 24.9895 24.4671 24.2947 24.4671 23.4421V23.3158C24.4673 22.9999 24.3724 22.7 24.1988 22.4474Z" fill="#555555"/>
<path d="M18.4356 27.5C19.3514 27.5 20.0776 26.7579 20.0935 25.8421H16.7777C16.7936 26.7579 17.5197 27.5 18.4356 27.5Z" fill="#555555"/>
<path d="M24 14C25.1046 14 26 13.1046 26 12C26 10.8954 25.1046 10 24 10C22.8954 10 22 10.8954 22 12C22 13.1046 22.8954 14 24 14Z" fill="#E61D1D"/>
</svg>
