<svg width="13" height="16" viewBox="0 0 13 16" fill="none" xmlns="http://www.w3.org/2000/svg">
<path d="M11.8106 10.4474C11.3842 9.81585 11.1158 9.10521 11.1158 8.34737V6.8474C11.1158 4.36839 9.58422 2.50529 7.2158 2.01582V1.41579C7.2158 0.91047 6.80531 0.5 6.30001 0.5H5.77896C5.27364 0.5 4.86317 0.910498 4.86317 1.41579V2.01582C2.51051 2.52114 0.963172 4.38424 0.963172 6.8474V8.34737C0.963172 9.10524 0.694765 9.83161 0.268407 10.4474C0.0947171 10.7 0 11.0001 0 11.3158V11.4421C0 12.2947 0.694765 12.9895 1.54734 12.9895H10.5316C11.3841 12.9895 12.0789 12.2947 12.0789 11.4421V11.3158C12.0791 10.9999 11.9843 10.7 11.8106 10.4474Z" fill="#555555"/>
<path d="M6.04741 15.5C6.9632 15.5 7.68946 14.7579 7.70533 13.8421H4.38954C4.4054 14.7579 5.13165 15.5 6.04747 15.5H6.04741Z" fill="#555555"/>
</svg>
