<svg width="37" height="27" viewBox="0 0 27 27" fill="none" xmlns="http://www.w3.org/2000/svg">
<rect x="0.388306" width="26.0789" height="27" rx="13.0394" fill="#9FBD4C"/>
<path d="M19.1989 15.9474C18.7725 15.3158 18.5041 14.6052 18.5041 13.8474V12.3474C18.5041 9.86839 16.9725 8.00529 14.6041 7.51582V6.91579C14.6041 6.41047 14.1936 6 13.6883 6H13.1673C12.6619 6 12.2515 6.4105 12.2515 6.91579V7.51582C9.89882 8.02114 8.35148 9.88424 8.35148 12.3474V13.8474C8.35148 14.6052 8.08307 15.3316 7.65671 15.9474C7.48302 16.2 7.38831 16.5001 7.38831 16.8158V16.9421C7.38831 17.7947 8.08307 18.4895 8.93565 18.4895H17.9199C18.7724 18.4895 19.4672 17.7947 19.4672 16.9421V16.8158C19.4674 16.4999 19.3726 16.2 19.1989 15.9474Z" fill="white"/>
<path d="M13.4357 21C14.3515 21 15.0778 20.2579 15.0936 19.3421H11.7778C11.7937 20.2579 12.52 21 13.4358 21H13.4357Z" fill="white"/>
</svg>
