<svg width="28" height="27" viewBox="0 0 28 27" fill="none" xmlns="http://www.w3.org/2000/svg">
<rect x="0.842834" width="26.5455" height="27" rx="13.2727" fill="#9FBD4C"/>
<path d="M16.6793 17.6573C14.0405 19.5914 10.4047 19.1179 8.31442 16.5683C6.2241 14.0187 6.37763 10.2426 8.66689 7.88106C10.9562 5.52026 14.6178 5.36193 17.0909 7.51757C19.5639 9.67321 20.0224 13.4225 18.1469 16.1439L21.3883 19.4866L19.9207 21L16.6793 17.6573ZM16.0061 15.4488C17.6272 13.7771 17.6272 11.0662 16.0061 9.39372C14.385 7.72124 11.7562 7.72199 10.1344 9.39372C8.51336 11.0655 8.51336 13.7764 10.1344 15.4488C11.7555 17.1213 14.3843 17.1206 16.0061 15.4488Z" fill="white"/>
</svg>
