<svg width="15" height="15" viewBox="0 0 15 15" fill="none" xmlns="http://www.w3.org/2000/svg">
<path d="M0.83902 3.16089C0.519085 2.85579 0.359467 2.47833 0.359467 2.02921C0.359467 1.58008 0.519085 1.18559 0.83902 0.880492C1.15896 0.575399 1.57079 0.422852 2.07591 0.422852C2.58104 0.422852 2.9763 0.575399 3.29555 0.880492C3.61548 1.18559 3.7751 1.56873 3.7751 2.02921C3.7751 2.48969 3.61548 2.85579 3.29555 3.16089C2.97561 3.46598 2.56929 3.61852 2.07591 3.61852C1.58254 3.61852 1.15896 3.46598 0.83902 3.16089ZM3.5056 4.91056V14.2599H0.628952V4.91056H3.5056Z" fill="#333333"/>
<path d="M13.0843 5.83365C13.7111 6.53253 14.0248 7.4925 14.0248 8.7143V14.0953H11.2918V9.09389C11.2918 8.47803 11.1364 7.9991 10.8254 7.65782C10.5145 7.31654 10.0964 7.14626 9.57125 7.14626C9.04609 7.14626 8.628 7.31725 8.31705 7.65782C8.0061 7.9991 7.85062 8.47803 7.85062 9.09389V14.0953H5.10181V4.88502H7.85062V6.10681C8.1291 5.69955 8.50431 5.37814 8.97627 5.14116C9.44754 4.90489 9.97825 4.7864 10.5677 4.7864C11.618 4.7864 12.4569 5.13619 13.0836 5.83435L13.0843 5.83365Z" fill="#333333"/>
</svg>
